<svg width="58" height="54" viewBox="0 0 58 54" fill="none" xmlns="http://www.w3.org/2000/svg">
<g clip-path="url(#clip0_2984_5952)">
<path d="M29.7 29.9493L0 13.7673L27.0726 0L57.3519 16.8297L29.7 29.9493Z" fill="white"/>
<path d="M29.5291 27.4368L4.8125 13.9701L27.3417 2.51245L52.5397 16.5192L29.5291 27.4368Z" fill="white"/>
<path d="M57.3521 40.1679L29.7002 53.29V29.7954L57.3521 16.6782V40.1679Z" fill="#BCC5DC"/>
<path d="M29.7 53.2899L0 37.1079V13.7673L29.7 29.9493V53.2899Z" fill="#F2F5FF"/>
<path d="M27.5417 50.9997L21.043 47.5219V39.9209L27.5417 43.4012V50.9997Z" fill="#8FBBD8"/>
<path d="M20.6276 47.28L14.124 43.8046V36.2036L20.6276 39.679V47.28Z" fill="#8FBBD8"/>
<path d="M13.7155 43.5625L7.20703 40.0871V32.4885L13.7155 35.9688V43.5625Z" fill="#8FBBD8"/>
<path d="M6.799 39.8501L0.297852 36.3698V28.7712L6.799 32.2491V39.8501Z" fill="#8FBBD8"/>
<path d="M0.0976562 33.1779L27.9695 48.2063V47.3778L0.0976562 32.3469V33.1779Z" fill="#F2F5FF"/>
<path d="M27.5417 42.343L21.043 38.8627V31.2642L27.5417 34.7445V42.343Z" fill="#8FBBD8"/>
<path d="M20.6276 38.6233L14.124 35.1478V27.5469L20.6276 31.0223V38.6233Z" fill="#8FBBD8"/>
<path d="M13.7155 34.9057L7.20703 31.4303V23.8318L13.7155 27.3121V34.9057Z" fill="#8FBBD8"/>
<path d="M6.799 31.1933L0.297852 27.713V20.1145L6.799 23.5899V31.1933Z" fill="#8FBBD8"/>
<path d="M27.5417 34.0529L21.043 30.5726V27.0947L27.5417 30.575V34.0529Z" fill="#8FBBD8"/>
<path d="M20.6276 30.3305L14.124 26.8551V23.3772L20.6276 26.8526V30.3305Z" fill="#8FBBD8"/>
<path d="M13.7155 26.6132L7.20703 23.1402V19.6624L13.7155 23.1427V26.6132Z" fill="#8FBBD8"/>
<path d="M6.799 22.9006L0.297852 19.4203V15.9448L6.799 19.4227V22.9006Z" fill="#8FBBD8"/>
<path d="M0.0976562 24.5212L27.9695 39.5496V38.721L0.0976562 23.6902V24.5212Z" fill="#F2F5FF"/>
<path d="M30.8467 51.7331L37.1523 48.6878V41.5806L30.8467 44.6185V51.7331Z" fill="#6F94A5"/>
<path d="M37.5547 48.4775L43.8628 45.4371V38.3225L37.5547 41.3653V48.4775Z" fill="#6F94A5"/>
<path d="M44.2617 45.2221L50.5698 42.1769V35.0671L44.2617 38.1149V45.2221Z" fill="#6F94A5"/>
<path d="M50.9678 41.969L57.2758 38.9261V31.814L50.9678 34.8544V41.969Z" fill="#6F94A5"/>
<path d="M57.3767 35.9542L29.957 48.9932V48.2062L57.3767 35.1721V35.9542Z" fill="#BCC5DC"/>
<path d="M30.8467 43.719L37.1523 40.6737V33.564L30.8467 36.6044V43.719Z" fill="#6F94A5"/>
<path d="M37.5547 40.4636L43.8628 37.4208V30.3086L37.5547 33.349V40.4636Z" fill="#6F94A5"/>
<path d="M44.2617 37.2055L50.5698 34.1627V27.0505L44.2617 30.1007V37.2055Z" fill="#6F94A5"/>
<path d="M50.9678 33.9526L57.2758 30.9122V23.7976L50.9678 26.8404V33.9526Z" fill="#6F94A5"/>
<path d="M30.8467 35.4605L37.1523 32.4128V28.3704L30.8467 31.4083V35.4605Z" fill="#6F94A5"/>
<path d="M37.5547 32.2052L43.8628 29.1623V25.1125L37.5547 28.1554V32.2052Z" fill="#6F94A5"/>
<path d="M44.2617 28.9473L50.5698 25.9045V21.8572L44.2617 24.9049V28.9473Z" fill="#6F94A5"/>
<path d="M50.9678 25.6942L57.2758 22.6513V18.604L50.9678 21.6444V25.6942Z" fill="#6F94A5"/>
<path d="M57.3767 27.9403L29.957 40.9768V40.1923L57.3767 27.1558V27.9403Z" fill="#BCC5DC"/>
</g>
<defs>
<clipPath id="clip0_2984_5952">
<rect width="57.3763" height="53.2899" fill="white"/>
</clipPath>
</defs>
</svg>
