<svg width="58" height="78" viewBox="0 0 58 78" fill="none" xmlns="http://www.w3.org/2000/svg">
<g clip-path="url(#clip0_2984_5953)">
<path d="M29.8738 54.5318L0.173828 38.3522L27.2465 24.5825L57.5257 41.4146L29.8738 54.5318Z" fill="white"/>
<path d="M29.7029 52.0193L4.98633 38.5526L27.5155 27.095L52.7136 41.1018L29.7029 52.0193Z" fill="white"/>
<path d="M57.5259 64.7502L29.874 77.8722V54.3777L57.5259 41.2605V64.7502Z" fill="#BCC5DC"/>
<path d="M29.8738 77.8724L0.173828 61.6929V38.3523L29.8738 54.5318V77.8724Z" fill="#F2F5FF"/>
<path d="M27.7155 75.5847L21.2168 72.1044V64.5059L27.7155 67.9837V75.5847Z" fill="#8FBBD8"/>
<path d="M20.8014 71.8625L14.2979 68.3871V60.7861L20.8014 64.2616V71.8625Z" fill="#8FBBD8"/>
<path d="M13.8893 68.145L7.38086 64.672V57.071L13.8893 60.5514V68.145Z" fill="#8FBBD8"/>
<path d="M6.97283 64.4326L0.47168 60.9523V53.3538L6.97283 56.8316V64.4326Z" fill="#8FBBD8"/>
<path d="M0.271484 57.7604L28.1433 72.7888V71.9603L0.271484 56.9294V57.7604Z" fill="#F2F5FF"/>
<path d="M27.7155 66.928L21.2168 63.4476V55.8491L27.7155 59.327V66.928Z" fill="#8FBBD8"/>
<path d="M20.8014 63.2055L14.2979 59.7301V52.1292L20.8014 55.6046V63.2055Z" fill="#8FBBD8"/>
<path d="M13.8893 59.4883L7.38086 56.0128V48.4143L13.8893 51.8946V59.4883Z" fill="#8FBBD8"/>
<path d="M6.97283 55.7759L0.47168 52.2955V44.697L6.97283 48.1749V55.7759Z" fill="#8FBBD8"/>
<path d="M27.7155 58.6352L21.2168 55.1549V51.6794L27.7155 55.1573V58.6352Z" fill="#8FBBD8"/>
<path d="M20.8014 54.913L14.2979 51.44V47.9597L20.8014 51.4351V54.913Z" fill="#8FBBD8"/>
<path d="M13.8893 51.1957L7.38086 47.7227V44.2449L13.8893 47.7252V51.1957Z" fill="#8FBBD8"/>
<path d="M6.97283 47.4831L0.47168 44.0052V40.5273L6.97283 44.0052V47.4831Z" fill="#8FBBD8"/>
<path d="M0.271484 49.1034L28.1433 64.1318V63.3033L0.271484 48.2725V49.1034Z" fill="#F2F5FF"/>
<path d="M31.0205 76.3178L37.3261 73.2701V66.1628L31.0205 69.2008V76.3178Z" fill="#6F94A5"/>
<path d="M37.7285 73.0625L44.0366 70.0196V62.905L37.7285 65.9479V73.0625Z" fill="#6F94A5"/>
<path d="M44.4355 69.8047L50.7436 66.7618V59.6497L44.4355 62.6974V69.8047Z" fill="#6F94A5"/>
<path d="M51.1416 66.5515L57.4497 63.5086V56.3965L51.1416 59.4369V66.5515Z" fill="#6F94A5"/>
<path d="M57.5506 60.5367L30.1309 73.5757V72.7887L57.5506 59.7546V60.5367Z" fill="#BCC5DC"/>
<path d="M31.0205 68.3015L37.3261 65.2562V58.1489L31.0205 61.1869V68.3015Z" fill="#6F94A5"/>
<path d="M37.7285 65.0461L44.0366 62.0057V54.8911L37.7285 57.9339V65.0461Z" fill="#6F94A5"/>
<path d="M44.4355 61.7905L50.7436 58.7452V51.6355L44.4355 54.6832V61.7905Z" fill="#6F94A5"/>
<path d="M51.1416 58.5351L57.4497 55.4947V48.3826L51.1416 51.423V58.5351Z" fill="#6F94A5"/>
<path d="M31.0205 60.043L37.3261 56.9953V52.9529L31.0205 55.9908V60.043Z" fill="#6F94A5"/>
<path d="M37.7285 56.7877L44.0366 53.7448V49.6951L37.7285 52.7379V56.7877Z" fill="#6F94A5"/>
<path d="M44.4355 53.5296L50.7436 50.4868V46.4395L44.4355 49.4872V53.5296Z" fill="#6F94A5"/>
<path d="M51.1416 50.2767L57.4497 47.2363V43.1865L51.1416 46.2269V50.2767Z" fill="#6F94A5"/>
<path d="M57.5506 52.5228L30.1309 65.5593V64.7748L57.5506 51.7407V52.5228Z" fill="#BCC5DC"/>
<path d="M29.8738 30.5704L0.173828 14.3884L27.2465 0.621094L57.5257 17.4508L29.8738 30.5704Z" fill="white"/>
<path d="M29.7029 28.0579L4.98633 14.5912L27.5155 3.13354L52.7136 17.1403L29.7029 28.0579Z" fill="white"/>
<path d="M57.5259 40.789L29.874 53.9111V30.4165L57.5259 17.2993V40.789Z" fill="#BCC5DC"/>
<path d="M29.8738 53.911L0.173828 37.729V14.3884L29.8738 30.5704V53.911Z" fill="#F2F5FF"/>
<path d="M27.7155 51.6208L21.2168 48.143V40.542L27.7155 44.0223V51.6208Z" fill="#8FBBD8"/>
<path d="M20.8014 47.9011L14.2979 44.4257V36.8247L20.8014 40.3001V47.9011Z" fill="#8FBBD8"/>
<path d="M13.8893 44.1836L7.38086 40.7081V33.1096L13.8893 36.5899V44.1836Z" fill="#8FBBD8"/>
<path d="M6.97283 40.4712L0.47168 36.9909V29.3923L6.97283 32.8702V40.4712Z" fill="#8FBBD8"/>
<path d="M0.271484 33.799L28.1433 48.8274V47.9989L0.271484 32.968V33.799Z" fill="#F2F5FF"/>
<path d="M27.7155 42.9641L21.2168 39.4838V31.8853L27.7155 35.3656V42.9641Z" fill="#8FBBD8"/>
<path d="M20.8014 39.2444L14.2979 35.7689V28.168L20.8014 31.6434V39.2444Z" fill="#8FBBD8"/>
<path d="M13.8893 35.5268L7.38086 32.0514V24.4529L13.8893 27.9332V35.5268Z" fill="#8FBBD8"/>
<path d="M6.97283 31.8144L0.47168 28.3341V20.7356L6.97283 24.211V31.8144Z" fill="#8FBBD8"/>
<path d="M27.7155 34.674L21.2168 31.1937V27.7158L27.7155 31.1961V34.674Z" fill="#8FBBD8"/>
<path d="M20.8014 30.9516L14.2979 27.4762V23.9983L20.8014 27.4737V30.9516Z" fill="#8FBBD8"/>
<path d="M13.8893 27.2343L7.38086 23.7613V20.2834L13.8893 23.7638V27.2343Z" fill="#8FBBD8"/>
<path d="M6.97283 23.5217L0.47168 20.0413V16.5659L6.97283 20.0438V23.5217Z" fill="#8FBBD8"/>
<path d="M0.271484 25.1423L28.1433 40.1707V39.3421L0.271484 24.3113V25.1423Z" fill="#F2F5FF"/>
<path d="M31.0205 52.3542L37.3261 49.3089V42.2017L31.0205 45.2396V52.3542Z" fill="#6F94A5"/>
<path d="M37.7285 49.0986L44.0366 46.0582V38.9436L37.7285 41.9864V49.0986Z" fill="#6F94A5"/>
<path d="M44.4355 45.8432L50.7436 42.798V35.6882L44.4355 38.736V45.8432Z" fill="#6F94A5"/>
<path d="M51.1416 42.5901L57.4497 39.5472V32.4351L51.1416 35.4754V42.5901Z" fill="#6F94A5"/>
<path d="M57.5506 36.5753L30.1309 49.6143V48.8273L57.5506 35.7932V36.5753Z" fill="#BCC5DC"/>
<path d="M31.0205 44.3401L37.3261 41.2948V34.1851L31.0205 37.2254V44.3401Z" fill="#6F94A5"/>
<path d="M37.7285 41.0847L44.0366 38.0418V30.9297L37.7285 33.9701V41.0847Z" fill="#6F94A5"/>
<path d="M44.4355 37.8266L50.7436 34.7838V27.6716L44.4355 30.7218V37.8266Z" fill="#6F94A5"/>
<path d="M51.1416 34.5737L57.4497 31.5333V24.4187L51.1416 27.4615V34.5737Z" fill="#6F94A5"/>
<path d="M31.0205 36.0816L37.3261 33.0339V28.9915L31.0205 32.0294V36.0816Z" fill="#6F94A5"/>
<path d="M37.7285 32.8263L44.0366 29.7834V25.7336L37.7285 28.7765V32.8263Z" fill="#6F94A5"/>
<path d="M44.4355 29.5684L50.7436 26.5256V22.4783L44.4355 25.526V29.5684Z" fill="#6F94A5"/>
<path d="M51.1416 26.3153L57.4497 23.2724V19.2251L51.1416 22.2655V26.3153Z" fill="#6F94A5"/>
<path d="M57.5506 28.5614L30.1309 41.5979V40.8134L57.5506 27.7769V28.5614Z" fill="#BCC5DC"/>
</g>
<defs>
<clipPath id="clip0_2984_5953">
<rect width="57.3763" height="77.2513" fill="white" transform="translate(0.173828 0.621094)"/>
</clipPath>
</defs>
</svg>
