<svg width="58" height="101" viewBox="0 0 58 101" fill="none" xmlns="http://www.w3.org/2000/svg">
<g clip-path="url(#clip0_2984_5456)">
<path d="M30.0486 77.6595L0.348633 61.4799L27.4213 47.7102L57.7005 64.5423L30.0486 77.6595Z" fill="white"/>
<path d="M29.8777 75.147L5.16113 61.6803L27.6903 50.2227L52.8884 64.2295L29.8777 75.147Z" fill="white"/>
<path d="M57.7007 87.8779L30.0488 101V77.5053L57.7007 64.3882V87.8779Z" fill="#BCC5DC"/>
<path d="M30.0486 101L0.348633 84.8203V61.4797L30.0486 77.6593V101Z" fill="#F2F5FF"/>
<path d="M27.8903 98.7124L21.3916 95.2321V87.6335L27.8903 91.1114V98.7124Z" fill="#8FBBD8"/>
<path d="M20.9762 94.9902L14.4727 91.5148V83.9138L20.9762 87.3892V94.9902Z" fill="#8FBBD8"/>
<path d="M14.0641 91.2727L7.55566 87.7997V80.1987L14.0641 83.679V91.2727Z" fill="#8FBBD8"/>
<path d="M7.14763 87.5603L0.646484 84.08V76.4814L7.14763 79.9593V87.5603Z" fill="#8FBBD8"/>
<path d="M0.446289 80.8881L28.3181 95.9165V95.0904L0.446289 80.0571V80.8881Z" fill="#F2F5FF"/>
<path d="M27.8903 90.0556L21.3916 86.5753V78.9768L27.8903 82.4547V90.0556Z" fill="#8FBBD8"/>
<path d="M20.9762 86.3332L14.4727 82.8578V75.2568L20.9762 78.7323V86.3332Z" fill="#8FBBD8"/>
<path d="M14.0641 82.6159L7.55566 79.143V71.542L14.0641 75.0223V82.6159Z" fill="#8FBBD8"/>
<path d="M7.14763 78.9035L0.646484 75.4232V67.8247L7.14763 71.3026V78.9035Z" fill="#8FBBD8"/>
<path d="M27.8903 81.7629L21.3916 78.2826V74.8071L27.8903 78.285V81.7629Z" fill="#8FBBD8"/>
<path d="M20.9762 78.0407L14.4727 74.5677V71.0874L20.9762 74.5628V78.0407Z" fill="#8FBBD8"/>
<path d="M14.0641 74.3234L7.55566 70.8504V67.3726L14.0641 70.8529V74.3234Z" fill="#8FBBD8"/>
<path d="M7.14763 70.6108L0.646484 67.1329V63.655L7.14763 67.1329V70.6108Z" fill="#8FBBD8"/>
<path d="M0.446289 72.2311L28.3181 87.2595V86.431L0.446289 71.4001V72.2311Z" fill="#F2F5FF"/>
<path d="M31.1953 99.4455L37.5009 96.3978V89.2905L31.1953 92.3285V99.4455Z" fill="#6F94A5"/>
<path d="M37.9033 96.1901L44.2114 93.1473V86.0327L37.9033 89.0755V96.1901Z" fill="#6F94A5"/>
<path d="M44.6104 92.9323L50.9184 89.8895V82.7773L44.6104 85.8251V92.9323Z" fill="#6F94A5"/>
<path d="M51.3164 89.6792L57.6245 86.6363V79.5242L51.3164 82.5646V89.6792Z" fill="#6F94A5"/>
<path d="M57.7254 83.6644L30.3057 96.7034V95.9164L57.7254 82.8823V83.6644Z" fill="#BCC5DC"/>
<path d="M31.1953 91.4292L37.5009 88.3839V81.2766L31.1953 84.3146V91.4292Z" fill="#6F94A5"/>
<path d="M37.9033 88.1738L44.2114 85.1334V78.0188L37.9033 81.0616V88.1738Z" fill="#6F94A5"/>
<path d="M44.6104 84.9182L50.9184 81.8729V74.7632L44.6104 77.8109V84.9182Z" fill="#6F94A5"/>
<path d="M51.3164 81.6628L57.6245 78.6224V71.5103L51.3164 74.5506V81.6628Z" fill="#6F94A5"/>
<path d="M31.1953 83.1707L37.5009 80.123V76.0806L31.1953 79.1185V83.1707Z" fill="#6F94A5"/>
<path d="M37.9033 79.9154L44.2114 76.8725V72.8228L37.9033 75.8656V79.9154Z" fill="#6F94A5"/>
<path d="M44.6104 76.6573L50.9184 73.6145V69.5671L44.6104 72.6149V76.6573Z" fill="#6F94A5"/>
<path d="M51.3164 73.4044L57.6245 70.364V66.3142L51.3164 69.3546V73.4044Z" fill="#6F94A5"/>
<path d="M57.7254 75.6505L30.3057 88.687V87.9025L57.7254 74.8684V75.6505Z" fill="#BCC5DC"/>
<path d="M30.0486 53.6981L0.348633 37.5161L27.4213 23.7488L57.7005 40.5784L30.0486 53.6981Z" fill="white"/>
<path d="M29.8777 51.1856L5.16113 37.7189L27.6903 26.2612L52.8884 40.268L29.8777 51.1856Z" fill="white"/>
<path d="M57.7007 63.9167L30.0488 77.0387V53.5442L57.7007 40.427V63.9167Z" fill="#BCC5DC"/>
<path d="M30.0486 77.0387L0.348633 60.8567V37.5161L30.0486 53.6981V77.0387Z" fill="#F2F5FF"/>
<path d="M27.8903 74.7485L21.3916 71.2706V63.6697L27.8903 67.15V74.7485Z" fill="#8FBBD8"/>
<path d="M20.9762 71.0288L14.4727 67.5534V59.9524L20.9762 63.4278V71.0288Z" fill="#8FBBD8"/>
<path d="M14.0641 67.3113L7.55566 63.8358V56.2373L14.0641 59.7176V67.3113Z" fill="#8FBBD8"/>
<path d="M7.14763 63.5989L0.646484 60.1185V52.52L7.14763 55.9979V63.5989Z" fill="#8FBBD8"/>
<path d="M0.446289 56.9267L28.3181 71.9551V71.1266L0.446289 56.0957V56.9267Z" fill="#F2F5FF"/>
<path d="M27.8903 66.0918L21.3916 62.6139V55.0129L27.8903 58.4933V66.0918Z" fill="#8FBBD8"/>
<path d="M20.9762 62.372L14.4727 58.8966V51.2957L20.9762 54.7711V62.372Z" fill="#8FBBD8"/>
<path d="M14.0641 58.6545L7.55566 55.1791V47.5806L14.0641 51.0609V58.6545Z" fill="#8FBBD8"/>
<path d="M7.14763 54.9421L0.646484 51.4618V43.8633L7.14763 47.3412V54.9421Z" fill="#8FBBD8"/>
<path d="M27.8903 57.8017L21.3916 54.3214V50.8435L27.8903 54.3238V57.8017Z" fill="#8FBBD8"/>
<path d="M20.9762 54.0793L14.4727 50.6038V47.126L20.9762 50.6014V54.0793Z" fill="#8FBBD8"/>
<path d="M14.0641 50.362L7.55566 46.889V43.4111L14.0641 46.8914V50.362Z" fill="#8FBBD8"/>
<path d="M7.14763 46.6493L0.646484 43.169V39.6936L7.14763 43.1715V46.6493Z" fill="#8FBBD8"/>
<path d="M0.446289 48.2697L28.3181 63.2981V62.4696L0.446289 47.4387V48.2697Z" fill="#F2F5FF"/>
<path d="M31.1953 75.4817L37.5009 72.4364V65.3291L31.1953 68.3671V75.4817Z" fill="#6F94A5"/>
<path d="M37.9033 72.2263L44.2114 69.1859V62.0713L37.9033 65.1141V72.2263Z" fill="#6F94A5"/>
<path d="M44.6104 68.9709L50.9184 65.9256V58.8159L44.6104 61.8636V68.9709Z" fill="#6F94A5"/>
<path d="M51.3164 65.7177L57.6245 62.6749V55.5627L51.3164 58.6031V65.7177Z" fill="#6F94A5"/>
<path d="M57.7254 59.703L30.3057 72.742V71.955L57.7254 58.9209V59.703Z" fill="#BCC5DC"/>
<path d="M31.1953 67.4677L37.5009 64.4225V57.3127L31.1953 60.3531V67.4677Z" fill="#6F94A5"/>
<path d="M37.9033 64.2124L44.2114 61.1695V54.0574L37.9033 57.0978V64.2124Z" fill="#6F94A5"/>
<path d="M44.6104 60.9543L50.9184 57.9115V50.7993L44.6104 53.8495V60.9543Z" fill="#6F94A5"/>
<path d="M51.3164 57.7014L57.6245 54.661V47.5464L51.3164 50.5892V57.7014Z" fill="#6F94A5"/>
<path d="M31.1953 59.2093L37.5009 56.1616V52.1191L31.1953 55.1571V59.2093Z" fill="#6F94A5"/>
<path d="M37.9033 55.9539L44.2114 52.9111V48.8613L37.9033 51.9042V55.9539Z" fill="#6F94A5"/>
<path d="M44.6104 52.6959L50.9184 49.653V45.6057L44.6104 48.6534V52.6959Z" fill="#6F94A5"/>
<path d="M51.3164 49.4429L57.6245 46.4001V42.3528L51.3164 45.3932V49.4429Z" fill="#6F94A5"/>
<path d="M57.7254 51.6891L30.3057 64.7256V63.9411L57.7254 50.907V51.6891Z" fill="#BCC5DC"/>
<path d="M30.0486 29.9493L0.348633 13.7673L27.4213 0L57.7005 16.8297L30.0486 29.9493Z" fill="white"/>
<path d="M29.8777 27.4368L5.16113 13.9701L27.6903 2.51245L52.8884 16.5193L29.8777 27.4368Z" fill="white"/>
<path d="M57.7007 40.1679L30.0488 53.29V29.7954L57.7007 16.6782V40.1679Z" fill="#BCC5DC"/>
<path d="M30.0486 53.2899L0.348633 37.1079V13.7673L30.0486 29.9493V53.2899Z" fill="#F2F5FF"/>
<path d="M27.8903 50.9997L21.3916 47.5219V39.9209L27.8903 43.4012V50.9997Z" fill="#8FBBD8"/>
<path d="M20.9762 47.28L14.4727 43.8046V36.2036L20.9762 39.679V47.28Z" fill="#8FBBD8"/>
<path d="M14.0641 43.5625L7.55566 40.0871V32.4885L14.0641 35.9688V43.5625Z" fill="#8FBBD8"/>
<path d="M7.14763 39.8501L0.646484 36.3698V28.7712L7.14763 32.2491V39.8501Z" fill="#8FBBD8"/>
<path d="M0.446289 33.1779L28.3181 48.2063V47.3778L0.446289 32.3469V33.1779Z" fill="#F2F5FF"/>
<path d="M27.8903 42.343L21.3916 38.8627V31.2642L27.8903 34.7445V42.343Z" fill="#8FBBD8"/>
<path d="M20.9762 38.6233L14.4727 35.1478V27.5469L20.9762 31.0223V38.6233Z" fill="#8FBBD8"/>
<path d="M14.0641 34.9057L7.55566 31.4303V23.8318L14.0641 27.3121V34.9057Z" fill="#8FBBD8"/>
<path d="M7.14763 31.1933L0.646484 27.713V20.1145L7.14763 23.5899V31.1933Z" fill="#8FBBD8"/>
<path d="M27.8903 34.0529L21.3916 30.5726V27.0947L27.8903 30.575V34.0529Z" fill="#8FBBD8"/>
<path d="M20.9762 30.3305L14.4727 26.8551V23.3772L20.9762 26.8526V30.3305Z" fill="#8FBBD8"/>
<path d="M14.0641 26.6132L7.55566 23.1402V19.6624L14.0641 23.1427V26.6132Z" fill="#8FBBD8"/>
<path d="M7.14763 22.9006L0.646484 19.4203V15.9448L7.14763 19.4227V22.9006Z" fill="#8FBBD8"/>
<path d="M0.446289 24.5212L28.3181 39.5496V38.721L0.446289 23.6902V24.5212Z" fill="#F2F5FF"/>
<path d="M31.1953 51.7331L37.5009 48.6878V41.5806L31.1953 44.6185V51.7331Z" fill="#6F94A5"/>
<path d="M37.9033 48.4775L44.2114 45.4371V38.3225L37.9033 41.3653V48.4775Z" fill="#6F94A5"/>
<path d="M44.6104 45.2221L50.9184 42.1769V35.0671L44.6104 38.1149V45.2221Z" fill="#6F94A5"/>
<path d="M51.3164 41.969L57.6245 38.9261V31.814L51.3164 34.8544V41.969Z" fill="#6F94A5"/>
<path d="M57.7254 35.9542L30.3057 48.9932V48.2062L57.7254 35.1721V35.9542Z" fill="#BCC5DC"/>
<path d="M31.1953 43.719L37.5009 40.6737V33.564L31.1953 36.6044V43.719Z" fill="#6F94A5"/>
<path d="M37.9033 40.4636L44.2114 37.4208V30.3086L37.9033 33.349V40.4636Z" fill="#6F94A5"/>
<path d="M44.6104 37.2055L50.9184 34.1627V27.0505L44.6104 30.1007V37.2055Z" fill="#6F94A5"/>
<path d="M51.3164 33.9526L57.6245 30.9122V23.7976L51.3164 26.8404V33.9526Z" fill="#6F94A5"/>
<path d="M31.1953 35.4605L37.5009 32.4128V28.3704L31.1953 31.4083V35.4605Z" fill="#6F94A5"/>
<path d="M37.9033 32.2052L44.2114 29.1623V25.1125L37.9033 28.1554V32.2052Z" fill="#6F94A5"/>
<path d="M44.6104 28.9473L50.9184 25.9045V21.8572L44.6104 24.9049V28.9473Z" fill="#6F94A5"/>
<path d="M51.3164 25.6942L57.6245 22.6513V18.604L51.3164 21.6444V25.6942Z" fill="#6F94A5"/>
<path d="M57.7254 27.9403L30.3057 40.9768V40.1923L57.7254 27.1558V27.9403Z" fill="#BCC5DC"/>
</g>
<defs>
<clipPath id="clip0_2984_5456">
<rect width="57.3763" height="101" fill="white" transform="translate(0.348633)"/>
</clipPath>
</defs>
</svg>
