<svg width="58" height="125" viewBox="0 0 58 125" fill="none" xmlns="http://www.w3.org/2000/svg">
<g clip-path="url(#clip0_2984_5954)">
<path d="M29.7 101.659L0 85.4799L27.0726 71.7102L57.3519 88.5423L29.7 101.659Z" fill="white"/>
<path d="M29.5291 99.147L4.8125 85.6803L27.3417 74.2227L52.5397 88.2295L29.5291 99.147Z" fill="white"/>
<path d="M57.3521 111.878L29.7002 125V101.505L57.3521 88.3882V111.878Z" fill="#BCC5DC"/>
<path d="M29.7 125L0 108.82V85.4797L29.7 101.659V125Z" fill="#F2F5FF"/>
<path d="M27.5417 122.712L21.043 119.232V111.634L27.5417 115.111V122.712Z" fill="#8FBBD8"/>
<path d="M20.6276 118.99L14.124 115.515V107.914L20.6276 111.389V118.99Z" fill="#8FBBD8"/>
<path d="M13.7155 115.273L7.20703 111.8V104.199L13.7155 107.679V115.273Z" fill="#8FBBD8"/>
<path d="M6.799 111.56L0.297852 108.08V100.481L6.799 103.959V111.56Z" fill="#8FBBD8"/>
<path d="M0.0976562 104.888L27.9695 119.917V119.09L0.0976562 104.057V104.888Z" fill="#F2F5FF"/>
<path d="M27.5417 114.056L21.043 110.575V102.977L27.5417 106.455V114.056Z" fill="#8FBBD8"/>
<path d="M20.6276 110.333L14.124 106.858V99.2568L20.6276 102.732V110.333Z" fill="#8FBBD8"/>
<path d="M13.7155 106.616L7.20703 103.143V95.542L13.7155 99.0223V106.616Z" fill="#8FBBD8"/>
<path d="M6.799 102.904L0.297852 99.4232V91.8247L6.799 95.3026V102.904Z" fill="#8FBBD8"/>
<path d="M27.5417 105.763L21.043 102.283V98.8071L27.5417 102.285V105.763Z" fill="#8FBBD8"/>
<path d="M20.6276 102.041L14.124 98.5677V95.0874L20.6276 98.5628V102.041Z" fill="#8FBBD8"/>
<path d="M13.7155 98.3234L7.20703 94.8504V91.3726L13.7155 94.8529V98.3234Z" fill="#8FBBD8"/>
<path d="M6.799 94.6108L0.297852 91.1329V87.655L6.799 91.1329V94.6108Z" fill="#8FBBD8"/>
<path d="M0.0976562 96.2311L27.9695 111.26V110.431L0.0976562 95.4001V96.2311Z" fill="#F2F5FF"/>
<path d="M30.8467 123.446L37.1523 120.398V113.291L30.8467 116.328V123.446Z" fill="#6F94A5"/>
<path d="M37.5547 120.19L43.8628 117.147V110.033L37.5547 113.076V120.19Z" fill="#6F94A5"/>
<path d="M44.2617 116.932L50.5698 113.89V106.777L44.2617 109.825V116.932Z" fill="#6F94A5"/>
<path d="M50.9678 113.679L57.2758 110.636V103.524L50.9678 106.565V113.679Z" fill="#6F94A5"/>
<path d="M57.3767 107.664L29.957 120.703V119.916L57.3767 106.882V107.664Z" fill="#BCC5DC"/>
<path d="M30.8467 115.429L37.1523 112.384V105.277L30.8467 108.315V115.429Z" fill="#6F94A5"/>
<path d="M37.5547 112.174L43.8628 109.133V102.019L37.5547 105.062V112.174Z" fill="#6F94A5"/>
<path d="M44.2617 108.918L50.5698 105.873V98.7632L44.2617 101.811V108.918Z" fill="#6F94A5"/>
<path d="M50.9678 105.663L57.2758 102.622V95.5103L50.9678 98.5506V105.663Z" fill="#6F94A5"/>
<path d="M30.8467 107.171L37.1523 104.123V100.081L30.8467 103.119V107.171Z" fill="#6F94A5"/>
<path d="M37.5547 103.915L43.8628 100.873V96.8228L37.5547 99.8656V103.915Z" fill="#6F94A5"/>
<path d="M44.2617 100.657L50.5698 97.6145V93.5671L44.2617 96.6149V100.657Z" fill="#6F94A5"/>
<path d="M50.9678 97.4044L57.2758 94.364V90.3142L50.9678 93.3546V97.4044Z" fill="#6F94A5"/>
<path d="M57.3767 99.6505L29.957 112.687V111.902L57.3767 98.8684V99.6505Z" fill="#BCC5DC"/>
<path d="M29.7 77.6981L0 61.5161L27.0726 47.7488L57.3519 64.5784L29.7 77.6981Z" fill="white"/>
<path d="M29.5291 75.1856L4.8125 61.7189L27.3417 50.2612L52.5397 64.268L29.5291 75.1856Z" fill="white"/>
<path d="M57.3521 87.9167L29.7002 101.039V77.5442L57.3521 64.427V87.9167Z" fill="#BCC5DC"/>
<path d="M29.7 101.039L0 84.8567V61.5161L29.7 77.6981V101.039Z" fill="#F2F5FF"/>
<path d="M27.5417 98.7485L21.043 95.2706V87.6697L27.5417 91.15V98.7485Z" fill="#8FBBD8"/>
<path d="M20.6276 95.0288L14.124 91.5534V83.9524L20.6276 87.4278V95.0288Z" fill="#8FBBD8"/>
<path d="M13.7155 91.3113L7.20703 87.8358V80.2373L13.7155 83.7176V91.3113Z" fill="#8FBBD8"/>
<path d="M6.799 87.5989L0.297852 84.1185V76.52L6.799 79.9979V87.5989Z" fill="#8FBBD8"/>
<path d="M0.0976562 80.9267L27.9695 95.9551V95.1266L0.0976562 80.0957V80.9267Z" fill="#F2F5FF"/>
<path d="M27.5417 90.0918L21.043 86.6139V79.0129L27.5417 82.4933V90.0918Z" fill="#8FBBD8"/>
<path d="M20.6276 86.372L14.124 82.8966V75.2957L20.6276 78.7711V86.372Z" fill="#8FBBD8"/>
<path d="M13.7155 82.6545L7.20703 79.1791V71.5806L13.7155 75.0609V82.6545Z" fill="#8FBBD8"/>
<path d="M6.799 78.9421L0.297852 75.4618V67.8633L6.799 71.3412V78.9421Z" fill="#8FBBD8"/>
<path d="M27.5417 81.8017L21.043 78.3214V74.8435L27.5417 78.3238V81.8017Z" fill="#8FBBD8"/>
<path d="M20.6276 78.0793L14.124 74.6038V71.126L20.6276 74.6014V78.0793Z" fill="#8FBBD8"/>
<path d="M13.7155 74.362L7.20703 70.889V67.4111L13.7155 70.8914V74.362Z" fill="#8FBBD8"/>
<path d="M6.799 70.6493L0.297852 67.169V63.6936L6.799 67.1715V70.6493Z" fill="#8FBBD8"/>
<path d="M0.0976562 72.2697L27.9695 87.2981V86.4696L0.0976562 71.4387V72.2697Z" fill="#F2F5FF"/>
<path d="M30.8467 99.4817L37.1523 96.4364V89.3291L30.8467 92.3671V99.4817Z" fill="#6F94A5"/>
<path d="M37.5547 96.2263L43.8628 93.1859V86.0713L37.5547 89.1141V96.2263Z" fill="#6F94A5"/>
<path d="M44.2617 92.9709L50.5698 89.9256V82.8159L44.2617 85.8636V92.9709Z" fill="#6F94A5"/>
<path d="M50.9678 89.7177L57.2758 86.6749V79.5627L50.9678 82.6031V89.7177Z" fill="#6F94A5"/>
<path d="M57.3767 83.703L29.957 96.742V95.955L57.3767 82.9209V83.703Z" fill="#BCC5DC"/>
<path d="M30.8467 91.4677L37.1523 88.4225V81.3127L30.8467 84.3531V91.4677Z" fill="#6F94A5"/>
<path d="M37.5547 88.2124L43.8628 85.1695V78.0574L37.5547 81.0978V88.2124Z" fill="#6F94A5"/>
<path d="M44.2617 84.9543L50.5698 81.9115V74.7993L44.2617 77.8495V84.9543Z" fill="#6F94A5"/>
<path d="M50.9678 81.7014L57.2758 78.661V71.5464L50.9678 74.5892V81.7014Z" fill="#6F94A5"/>
<path d="M30.8467 83.2093L37.1523 80.1616V76.1191L30.8467 79.1571V83.2093Z" fill="#6F94A5"/>
<path d="M37.5547 79.9539L43.8628 76.9111V72.8613L37.5547 75.9042V79.9539Z" fill="#6F94A5"/>
<path d="M44.2617 76.6959L50.5698 73.653V69.6057L44.2617 72.6534V76.6959Z" fill="#6F94A5"/>
<path d="M50.9678 73.4429L57.2758 70.4001V66.3528L50.9678 69.3932V73.4429Z" fill="#6F94A5"/>
<path d="M57.3767 75.6891L29.957 88.7256V87.9411L57.3767 74.907V75.6891Z" fill="#BCC5DC"/>
<path d="M29.7 53.9493L0 37.7673L27.0726 24L57.3519 40.8297L29.7 53.9493Z" fill="white"/>
<path d="M29.5291 51.4368L4.8125 37.9701L27.3417 26.5125L52.5397 40.5193L29.5291 51.4368Z" fill="white"/>
<path d="M57.3521 64.1679L29.7002 77.29V53.7954L57.3521 40.6782V64.1679Z" fill="#BCC5DC"/>
<path d="M29.7 77.2899L0 61.1079V37.7673L29.7 53.9493V77.2899Z" fill="#F2F5FF"/>
<path d="M27.5417 74.9997L21.043 71.5219V63.9209L27.5417 67.4012V74.9997Z" fill="#8FBBD8"/>
<path d="M20.6276 71.28L14.124 67.8046V60.2036L20.6276 63.679V71.28Z" fill="#8FBBD8"/>
<path d="M13.7155 67.5625L7.20703 64.0871V56.4885L13.7155 59.9688V67.5625Z" fill="#8FBBD8"/>
<path d="M6.799 63.8501L0.297852 60.3698V52.7712L6.799 56.2491V63.8501Z" fill="#8FBBD8"/>
<path d="M0.0976562 57.1779L27.9695 72.2063V71.3778L0.0976562 56.3469V57.1779Z" fill="#F2F5FF"/>
<path d="M27.5417 66.343L21.043 62.8627V55.2642L27.5417 58.7445V66.343Z" fill="#8FBBD8"/>
<path d="M20.6276 62.6233L14.124 59.1478V51.5469L20.6276 55.0223V62.6233Z" fill="#8FBBD8"/>
<path d="M13.7155 58.9057L7.20703 55.4303V47.8318L13.7155 51.3121V58.9057Z" fill="#8FBBD8"/>
<path d="M6.799 55.1933L0.297852 51.713V44.1145L6.799 47.5899V55.1933Z" fill="#8FBBD8"/>
<path d="M27.5417 58.0529L21.043 54.5726V51.0947L27.5417 54.575V58.0529Z" fill="#8FBBD8"/>
<path d="M20.6276 54.3305L14.124 50.8551V47.3772L20.6276 50.8526V54.3305Z" fill="#8FBBD8"/>
<path d="M13.7155 50.6132L7.20703 47.1402V43.6624L13.7155 47.1427V50.6132Z" fill="#8FBBD8"/>
<path d="M6.799 46.9006L0.297852 43.4203V39.9448L6.799 43.4227V46.9006Z" fill="#8FBBD8"/>
<path d="M0.0976562 48.5212L27.9695 63.5496V62.721L0.0976562 47.6902V48.5212Z" fill="#F2F5FF"/>
<path d="M30.8467 75.7331L37.1523 72.6878V65.5806L30.8467 68.6185V75.7331Z" fill="#6F94A5"/>
<path d="M37.5547 72.4775L43.8628 69.4371V62.3225L37.5547 65.3653V72.4775Z" fill="#6F94A5"/>
<path d="M44.2617 69.2221L50.5698 66.1769V59.0671L44.2617 62.1149V69.2221Z" fill="#6F94A5"/>
<path d="M50.9678 65.969L57.2758 62.9261V55.814L50.9678 58.8544V65.969Z" fill="#6F94A5"/>
<path d="M57.3767 59.9542L29.957 72.9932V72.2062L57.3767 59.1721V59.9542Z" fill="#BCC5DC"/>
<path d="M30.8467 67.719L37.1523 64.6737V57.564L30.8467 60.6044V67.719Z" fill="#6F94A5"/>
<path d="M37.5547 64.4636L43.8628 61.4208V54.3086L37.5547 57.349V64.4636Z" fill="#6F94A5"/>
<path d="M44.2617 61.2055L50.5698 58.1627V51.0505L44.2617 54.1007V61.2055Z" fill="#6F94A5"/>
<path d="M50.9678 57.9526L57.2758 54.9122V47.7976L50.9678 50.8404V57.9526Z" fill="#6F94A5"/>
<path d="M30.8467 59.4605L37.1523 56.4128V52.3704L30.8467 55.4083V59.4605Z" fill="#6F94A5"/>
<path d="M37.5547 56.2052L43.8628 53.1623V49.1125L37.5547 52.1554V56.2052Z" fill="#6F94A5"/>
<path d="M44.2617 52.9473L50.5698 49.9045V45.8572L44.2617 48.9049V52.9473Z" fill="#6F94A5"/>
<path d="M50.9678 49.6942L57.2758 46.6513V42.604L50.9678 45.6444V49.6942Z" fill="#6F94A5"/>
<path d="M57.3767 51.9403L29.957 64.9768V64.1923L57.3767 51.1558V51.9403Z" fill="#BCC5DC"/>
</g>
<g clip-path="url(#clip1_2984_5954)">
<path d="M29.7 29.9493L0 13.7673L27.0726 0L57.3519 16.8297L29.7 29.9493Z" fill="white"/>
<path d="M29.5291 27.4368L4.8125 13.9701L27.3417 2.51245L52.5397 16.5192L29.5291 27.4368Z" fill="white"/>
<path d="M57.3521 40.1679L29.7002 53.29V29.7954L57.3521 16.6782V40.1679Z" fill="#BCC5DC"/>
<path d="M29.7 53.2899L0 37.1079V13.7673L29.7 29.9493V53.2899Z" fill="#F2F5FF"/>
<path d="M27.5417 50.9997L21.043 47.5219V39.9209L27.5417 43.4012V50.9997Z" fill="#8FBBD8"/>
<path d="M20.6276 47.28L14.124 43.8046V36.2036L20.6276 39.679V47.28Z" fill="#8FBBD8"/>
<path d="M13.7155 43.5625L7.20703 40.0871V32.4885L13.7155 35.9688V43.5625Z" fill="#8FBBD8"/>
<path d="M6.799 39.8501L0.297852 36.3698V28.7712L6.799 32.2491V39.8501Z" fill="#8FBBD8"/>
<path d="M0.0976562 33.1779L27.9695 48.2063V47.3778L0.0976562 32.3469V33.1779Z" fill="#F2F5FF"/>
<path d="M27.5417 42.343L21.043 38.8627V31.2642L27.5417 34.7445V42.343Z" fill="#8FBBD8"/>
<path d="M20.6276 38.6233L14.124 35.1478V27.5469L20.6276 31.0223V38.6233Z" fill="#8FBBD8"/>
<path d="M13.7155 34.9057L7.20703 31.4303V23.8318L13.7155 27.3121V34.9057Z" fill="#8FBBD8"/>
<path d="M6.799 31.1933L0.297852 27.713V20.1145L6.799 23.5899V31.1933Z" fill="#8FBBD8"/>
<path d="M27.5417 34.0529L21.043 30.5726V27.0947L27.5417 30.575V34.0529Z" fill="#8FBBD8"/>
<path d="M20.6276 30.3305L14.124 26.8551V23.3772L20.6276 26.8526V30.3305Z" fill="#8FBBD8"/>
<path d="M13.7155 26.6132L7.20703 23.1402V19.6624L13.7155 23.1427V26.6132Z" fill="#8FBBD8"/>
<path d="M6.799 22.9006L0.297852 19.4203V15.9448L6.799 19.4227V22.9006Z" fill="#8FBBD8"/>
<path d="M0.0976562 24.5212L27.9695 39.5496V38.721L0.0976562 23.6902V24.5212Z" fill="#F2F5FF"/>
<path d="M30.8467 51.7331L37.1523 48.6878V41.5806L30.8467 44.6185V51.7331Z" fill="#6F94A5"/>
<path d="M37.5547 48.4775L43.8628 45.4371V38.3225L37.5547 41.3653V48.4775Z" fill="#6F94A5"/>
<path d="M44.2617 45.2221L50.5698 42.1769V35.0671L44.2617 38.1149V45.2221Z" fill="#6F94A5"/>
<path d="M50.9678 41.969L57.2758 38.9261V31.814L50.9678 34.8544V41.969Z" fill="#6F94A5"/>
<path d="M57.3767 35.9542L29.957 48.9932V48.2062L57.3767 35.1721V35.9542Z" fill="#BCC5DC"/>
<path d="M30.8467 43.719L37.1523 40.6737V33.564L30.8467 36.6044V43.719Z" fill="#6F94A5"/>
<path d="M37.5547 40.4636L43.8628 37.4208V30.3086L37.5547 33.349V40.4636Z" fill="#6F94A5"/>
<path d="M44.2617 37.2055L50.5698 34.1627V27.0505L44.2617 30.1007V37.2055Z" fill="#6F94A5"/>
<path d="M50.9678 33.9526L57.2758 30.9122V23.7976L50.9678 26.8404V33.9526Z" fill="#6F94A5"/>
<path d="M30.8467 35.4605L37.1523 32.4128V28.3704L30.8467 31.4083V35.4605Z" fill="#6F94A5"/>
<path d="M37.5547 32.2052L43.8628 29.1623V25.1125L37.5547 28.1554V32.2052Z" fill="#6F94A5"/>
<path d="M44.2617 28.9473L50.5698 25.9045V21.8572L44.2617 24.9049V28.9473Z" fill="#6F94A5"/>
<path d="M50.9678 25.6942L57.2758 22.6513V18.604L50.9678 21.6444V25.6942Z" fill="#6F94A5"/>
<path d="M57.3767 27.9403L29.957 40.9768V40.1923L57.3767 27.1558V27.9403Z" fill="#BCC5DC"/>
</g>
<defs>
<clipPath id="clip0_2984_5954">
<rect width="57.3763" height="101" fill="white" transform="translate(0 24)"/>
</clipPath>
<clipPath id="clip1_2984_5954">
<rect width="57.3763" height="53.2899" fill="white"/>
</clipPath>
</defs>
</svg>
