<svg width="38" height="42" viewBox="0 0 38 42" fill="none" xmlns="http://www.w3.org/2000/svg">
<ellipse cx="24.5" cy="14" rx="13.5" ry="14" fill="#FFDA00"/>
<text x="24.5" y="14" fill="#9d3a10" text-anchor="middle" alignment-baseline="middle" font-family="Consolas" id="bob-text-top" >  </text>
<path d="M10.8115 9.41121C10.7347 9.41121 10.6616 9.41121 10.5849 9.41487C10.5593 9.41487 10.5301 9.41487 10.5045 9.41487C10.5118 9.41487 10.5191 9.41487 10.5301 9.41487C9.58721 9.47699 8.66262 9.85706 7.94269 10.5697L7.91346 10.5989C6.75499 11.7574 6.03871 13.3581 6.03871 15.1122L6.03871 15.9637C6.00582 15.9527 5.97658 15.9418 5.94734 15.9308L5.06661 15.8431L4.34303 15.7737C3.91911 15.7335 3.48788 15.7481 3.07127 15.8468C2.61811 15.9527 2.13937 16.1684 2.02974 16.5959C2.01512 16.6544 2.00781 16.7165 2.00781 16.775C2.00781 17.082 2.19419 17.3743 2.42442 17.6192C2.74602 17.959 3.15166 18.2112 3.58289 18.3903L4.81811 18.8946C4.65 19.4099 4.50382 19.9507 4.39053 20.5172C4.18588 21.5258 4.07625 22.6039 4.07625 23.7222C4.07625 24.8404 4.18588 25.9185 4.39054 26.9272C4.50382 27.4936 4.65 28.0345 4.81811 28.5497L3.58289 29.0577C3.15166 29.2331 2.74602 29.4889 2.42442 29.8288C2.19419 30.07 2.00781 30.366 2.00781 30.673C2.00781 30.7315 2.01512 30.7936 2.02974 30.8521C2.13937 31.2796 2.61811 31.4953 3.07127 31.6012C3.48788 31.6999 3.91545 31.7145 4.34303 31.6707L5.06661 31.6012L5.94734 31.5172C5.98023 31.5099 6.00947 31.4953 6.03871 31.4843L6.03871 32.3394C6.03871 34.0972 6.75499 35.6943 7.91346 36.8527C7.92442 36.8637 7.93538 36.8747 7.94269 36.882C8.23871 37.1743 8.57126 37.4082 8.92575 37.5909C8.88555 37.7335 8.85631 37.8833 8.85631 38.0368C8.85631 38.9833 9.67126 39.7507 10.6726 39.7507C11.6739 39.7507 12.4889 38.9833 12.4889 38.0368C12.4889 37.9271 12.4743 37.8212 12.456 37.7152C12.4925 37.7006 12.5291 37.6823 12.5656 37.664C12.6058 37.6458 12.646 37.6238 12.6862 37.6056C12.7703 37.5654 12.8507 37.5215 12.9311 37.474C12.9749 37.4484 13.0151 37.4265 13.0553 37.3972C13.1357 37.3461 13.2125 37.2949 13.2892 37.2364C13.3257 37.2109 13.3623 37.1853 13.3988 37.1597C13.5085 37.0757 13.6145 36.9843 13.7204 36.8893L14.2248 36.4105C15.1749 35.5115 15.9716 34.4517 16.5234 33.2604C16.8048 32.6537 17.0277 32.0142 17.046 31.4916L17.046 27.468C17.8756 26.4301 18.3762 25.1145 18.3762 23.6783C18.3762 22.2421 17.8756 20.9301 17.046 19.8923L17.046 15.9454C17.0277 15.4192 16.8048 14.7833 16.5234 14.1767C15.9752 12.989 15.1786 11.9292 14.2247 11.0265L13.7204 10.5514C13.6181 10.4527 13.5085 10.365 13.3988 10.281C13.3623 10.2554 13.3257 10.2298 13.2892 10.2042C13.2125 10.1494 13.1321 10.0946 13.0553 10.0434C13.0151 10.0179 12.9713 9.99228 12.9311 9.97035C12.8507 9.92284 12.7703 9.87899 12.6862 9.83879C12.646 9.82051 12.6058 9.79859 12.5656 9.78031C12.4669 9.73646 12.3683 9.69626 12.2696 9.65972C12.244 9.64875 12.2184 9.63779 12.1892 9.63048C12.0613 9.58663 11.9297 9.54643 11.7982 9.51719C11.7799 9.51354 11.7616 9.50988 11.747 9.50623C11.6374 9.48065 11.5241 9.45872 11.4108 9.4441C11.3633 9.43679 11.3158 9.43314 11.2683 9.42948C11.2171 9.42583 11.1696 9.41486 11.1184 9.41121C11.0892 9.41121 11.0636 9.41121 11.0344 9.41121C10.9613 9.40755 10.8882 9.40756 10.8188 9.40756L10.8115 9.41121Z" fill="#FFDA00" stroke="#FFDA00" stroke-width="3" stroke-miterlimit="10"/>
<path d="M10.6678 36.3377C11.6728 36.3377 12.4841 37.1052 12.4841 38.0517C12.4841 38.9982 11.6692 39.7656 10.6678 39.7656C9.66651 39.7656 8.85156 38.9982 8.85156 38.0517C8.85156 37.1052 9.66651 36.3377 10.6678 36.3377Z" fill="#FFC498"/>
<path d="M6.84219 29.4267L6.94817 29.8433C7.11262 30.5084 6.76545 31.1881 6.15515 31.4549C6.08571 31.4878 6.01262 31.5134 5.93953 31.5317L5.0588 31.6157L4.33521 31.6852C3.91129 31.729 3.48007 31.7107 3.06345 31.6157C2.6103 31.5061 2.13156 31.2905 2.02193 30.8665C2.00731 30.8081 2 30.7459 2 30.6875C2 30.3805 2.18638 30.0881 2.41661 29.8433C2.73821 29.5034 3.14385 29.2513 3.57508 29.0722L5.0588 28.4619L5.15747 28.4217C5.22691 28.4071 5.3 28.3925 5.36943 28.3888C6.03455 28.3267 6.67408 28.7579 6.84219 29.4267Z" fill="#111111"/>
<path d="M7.00712 28.944C7.08387 29.0646 7.14234 29.1962 7.17888 29.3424L7.28486 29.759C7.39815 30.2012 7.28121 30.6543 7.00712 30.9796C6.8244 31.1988 6.57589 31.367 6.27988 31.4437L6.15928 31.4547L5.06294 31.5643L4.67922 31.6008C4.25164 31.641 3.82407 31.6264 3.40746 31.5314C2.9543 31.4218 2.47556 31.2062 2.36958 30.7822C2.35496 30.7201 2.34766 30.6616 2.34766 30.5959C2.34766 30.2889 2.53403 30.0002 2.76061 29.759C3.08221 29.4155 3.48785 29.167 3.91908 28.9879L5.06294 28.5201L5.37357 28.3922L5.49782 28.341C6.0935 28.1912 6.70015 28.4543 7.01078 28.9513L7.00712 28.944Z" fill="#56220E"/>
<path d="M3.81352 30.3987L3.82069 30.427C3.84098 30.5072 3.92246 30.5558 4.00268 30.5355L5.92298 30.05C6.0032 30.0297 6.05179 29.9482 6.03151 29.868L6.02434 29.8396C6.00406 29.7594 5.92258 29.7108 5.84235 29.7311L3.92206 30.2167C3.84183 30.2369 3.79324 30.3184 3.81352 30.3987Z" fill="#111111"/>
<path d="M4.25645 29.678L4.55078 30.8438L4.66417 30.8151L4.36984 29.6494L4.25645 29.678Z" fill="#111111"/>
<path d="M4.77794 29.5474L5.07227 30.7131L5.18565 30.6845L4.89132 29.5188L4.77794 29.5474Z" fill="#111111"/>
<path d="M4.33521 15.7853L5.0588 15.8548L5.93953 15.9425C6.00897 15.9607 6.08206 15.9827 6.14784 16.0119C6.76179 16.275 7.11262 16.9548 6.94817 17.6235L6.84219 18.0438C6.67774 18.7089 6.0382 19.1438 5.37309 19.0853C5.30365 19.0817 5.23056 19.0671 5.15747 19.0488L5.0588 19.0086L3.57508 18.4019C3.14385 18.2265 2.73821 17.9707 2.41661 17.6308C2.18638 17.3896 2 17.0936 2 16.7867C2 16.7282 2.00731 16.6661 2.02193 16.6076C2.13156 16.1764 2.6103 15.9644 3.06345 15.8584C3.48007 15.7561 3.90764 15.7451 4.33521 15.7853Z" fill="#111111"/>
<path d="M4.67531 15.8717L5.05903 15.9083L6.14807 16.0106L6.27963 16.0252C6.57564 16.0983 6.8278 16.2664 7.00687 16.4893C7.2773 16.8182 7.39425 17.2714 7.28461 17.7099L7.17863 18.1302C7.14209 18.2727 7.08362 18.4079 7.00687 18.5285C6.6999 19.0219 6.0896 19.2887 5.49392 19.1388L5.37332 19.0913L5.05903 18.9598L3.91518 18.4883C3.48395 18.3129 3.0783 18.0571 2.75671 17.7172C2.52647 17.476 2.34375 17.1837 2.34375 16.8767C2.34375 16.8182 2.3474 16.7561 2.36568 16.694C2.47166 16.2664 2.95405 16.0508 3.40355 15.9448C3.82016 15.8461 4.24774 15.8315 4.67531 15.8754L4.67531 15.8717Z" fill="#56220E"/>
<path d="M6.02446 17.6341L6.03163 17.6057C6.05192 17.5255 6.00332 17.444 5.9231 17.4237L4.0028 16.9382C3.92258 16.9179 3.8411 16.9665 3.82081 17.0467L3.81365 17.075C3.79336 17.1553 3.84195 17.2367 3.92218 17.257L5.84247 17.7426C5.9227 17.7629 6.00418 17.7143 6.02446 17.6341Z" fill="#111111"/>
<path d="M4.36973 17.8196L4.66406 16.6538L4.55068 16.6252L4.25635 17.7909L4.36973 17.8196Z" fill="#111111"/>
<path d="M4.89317 17.9472L5.1875 16.7815L5.07411 16.7529L4.77979 17.9186L4.89317 17.9472Z" fill="#111111"/>
<g style="mix-blend-mode:multiply" opacity="0.5">
<path d="M5.49373 28.3372C6.08941 28.1873 6.69605 28.4505 7.00668 28.9475L7.00668 30.983C6.82396 31.2023 6.57546 31.3704 6.27944 31.4471L6.15884 31.4581C6.08941 31.491 6.01632 31.5166 5.94323 31.5348L5.0625 31.6189L5.0625 28.4687L5.16117 28.4285C5.23061 28.4139 5.3037 28.3993 5.37313 28.3956L5.49738 28.3445L5.49373 28.3372Z" fill="#606060"/>
</g>
<g style="mix-blend-mode:multiply" opacity="0.5">
<path d="M5.05859 15.8578L5.93932 15.9455C6.00876 15.9638 6.08185 15.9857 6.14763 16.015L6.27919 16.0296C6.5752 16.1027 6.82736 16.2708 7.00643 16.4901L7.00643 18.5256C6.69946 19.019 6.08916 19.2857 5.49348 19.1359L5.37288 19.0884C5.30344 19.0847 5.23035 19.0701 5.15726 19.0518L5.05859 19.0116L5.05859 15.8615L5.05859 15.8578Z" fill="#606060"/>
</g>
<path d="M10.1533 13.6036C13.5118 13.6036 16.2344 18.1388 16.2344 23.7338C16.2344 29.3288 13.5118 33.864 10.1533 33.864C7.46728 33.864 5.18688 30.9624 4.38655 26.9388C4.1819 25.9301 4.07227 24.8521 4.07227 23.7338C4.07227 22.6155 4.1819 21.5374 4.38655 20.5288C5.19054 16.5052 7.46728 13.6036 10.1533 13.6036Z" fill="#2D80C3"/>
<path d="M4.38655 20.528L8.18721 20.528L8.18721 26.9417L4.38655 26.9417C4.1819 25.933 4.07227 24.8549 4.07227 23.7367C4.07227 22.6184 4.1819 21.5403 4.38655 20.5317L4.38655 20.528Z" fill="#9FC4BF"/>
<path d="M11.1132 9.4226C12.0524 9.48838 12.9806 9.87575 13.7152 10.5664L14.2195 11.0415C15.1697 11.9405 15.9663 13.004 16.5182 14.1917C16.7996 14.802 17.0225 15.4379 17.0408 15.9605L17.0408 31.5066C17.0225 32.0292 16.7996 32.6688 16.5182 33.2754C15.97 34.4668 15.1733 35.5229 14.2195 36.4256L13.7152 36.9043C12.9806 37.5987 12.0524 37.9824 11.1132 38.0482C9.97299 38.1322 8.81086 37.7522 7.94109 36.8934C7.93379 36.886 7.92282 36.8751 7.91186 36.8641C6.75339 35.7056 6.03711 34.105 6.03711 32.3508L6.03711 15.1236C6.03711 13.3658 6.75339 11.7688 7.91186 10.6103L7.94109 10.5811C8.81086 9.72227 9.97664 9.3422 11.1132 9.42625L11.1132 9.4226Z" fill="#2D80C3"/>
<g style="mix-blend-mode:multiply" opacity="0.32">
<path d="M13.7162 10.5665L14.2205 11.0416C15.1707 11.9406 15.9674 13.0041 16.5192 14.1918C16.8006 14.8021 17.0235 15.438 17.0418 15.9605L17.0418 31.5067C17.0235 32.0293 16.8006 32.6688 16.5192 33.2755C15.971 34.4668 15.1743 35.523 14.2205 36.4257L13.7162 36.9044C12.8245 37.7486 11.6478 38.1323 10.5039 38.0482C11.4431 37.9825 12.3713 37.5951 13.1059 36.9044L13.6102 36.4257C14.5604 35.5266 15.3571 34.4668 15.9089 33.2755C16.1903 32.6688 16.4132 32.0293 16.4315 31.5067L16.4315 15.9605C16.4132 15.4343 16.1903 14.7984 15.9089 14.1918C15.3607 13.0041 14.564 11.9443 13.6102 11.0416L13.1059 10.5665C12.3713 9.87217 11.4431 9.48845 10.5039 9.42267C11.6478 9.33862 12.8245 9.72599 13.7162 10.5665Z" fill="#4C4C4C"/>
</g>
<path d="M10.9356 17.6227C11.0927 17.6227 11.2499 17.6264 11.4034 17.641C14.2246 17.8566 16.505 19.9945 16.9362 22.75C16.9838 23.057 17.0093 23.3713 17.0093 23.6928C17.0093 24.6613 16.7828 25.5749 16.3808 26.3862C16.3186 26.5141 16.2492 26.6347 16.1798 26.759C15.2479 28.3487 13.618 29.4779 11.7103 29.7191C11.4582 29.752 11.1987 29.7666 10.9392 29.7666C9.53226 29.7666 8.23492 29.2842 7.20436 28.4802C7.13492 28.4254 7.06914 28.3669 7.00336 28.3158C5.69871 27.2048 4.86914 25.5457 4.86914 23.6928C4.86914 21.84 5.69871 20.1845 7.00336 19.0736C7.07279 19.0151 7.14223 18.9603 7.21166 18.9055C7.24821 18.8762 7.2811 18.8507 7.31764 18.8251C7.69406 18.5437 8.10336 18.3025 8.5419 18.1161C8.5419 18.1161 8.54555 18.1161 8.54921 18.1125C8.95485 17.937 9.38243 17.8091 9.82097 17.7251C10.1828 17.6556 10.5592 17.6227 10.9392 17.6227L10.9356 17.6227Z" fill="#FFC498"/>
<path d="M4.3418 23.6308L4.3418 23.7624C4.3418 24.0671 4.58886 24.3142 4.89362 24.3142L5.02518 24.3142C5.32995 24.3142 5.57701 24.0671 5.57701 23.7624L5.57701 23.6308C5.57701 23.3261 5.32995 23.079 5.02518 23.079L4.89362 23.079C4.58886 23.079 4.3418 23.3261 4.3418 23.6308Z" fill="#FFC498"/>
<path d="M12.2363 17.6228C15.5911 17.6228 18.3101 20.3417 18.3101 23.6965C18.3101 25.6919 17.3489 27.4606 15.8652 28.5716C14.8529 29.3281 13.5958 29.7739 12.2363 29.7739C12.1742 29.7739 12.1084 29.7739 12.0463 29.7703C11.9147 29.763 11.7795 29.7483 11.6479 29.7264C10.1131 29.467 8.69878 28.2646 7.75957 26.6713C7.61705 26.4264 6.84961 23.0314 6.84961 21.4454C6.84961 20.2175 7.14562 18.9128 7.14562 18.9128C7.50742 18.5656 7.95692 18.3098 8.47585 18.1198C8.47585 18.1198 8.47951 18.1198 8.48316 18.1161C8.91439 17.959 9.39313 17.8457 9.9011 17.769C10.3543 17.6995 10.8403 17.663 11.341 17.6447C11.6333 17.6301 11.9293 17.6264 12.2327 17.6264L12.2363 17.6228Z" fill="#AB2424"/>
<path d="M10.8773 17.623C11.0344 17.623 11.1916 17.6267 11.3451 17.6413C14.1663 17.8569 16.4467 19.9948 16.8779 22.7502L16.4358 25.0782L16.1215 26.7592C15.0763 28.5499 14.2394 29.5586 12.0467 29.7632C12.0321 29.7632 12.0138 29.7632 11.9992 29.7669C9.6238 29.9752 8.18758 29.31 7.1424 28.4805C7.07297 28.4257 7.00719 28.3672 6.94141 28.316C7.08759 28.0821 7.27396 27.7606 7.45669 27.3805C7.55901 27.1612 7.66499 26.92 7.76001 26.6679C8.03775 25.9443 8.23509 25.1147 8.15835 24.3144C8.15835 24.3144 8.71748 20.236 7.42014 19.421C7.25569 19.3187 7.39091 18.9569 7.25569 18.829C7.6321 18.5476 8.0414 18.3064 8.47994 18.12C8.47994 18.12 8.4836 18.12 8.48725 18.1164C8.8929 17.941 9.32047 17.813 9.75901 17.729C10.1208 17.6596 10.4972 17.6267 10.8773 17.6267L10.8773 17.623Z" fill="#AB2424"/>
<g style="mix-blend-mode:multiply" opacity="0.25">
<path d="M11.4027 17.6407C11.6951 17.6261 11.9911 17.6225 12.2944 17.6225C15.6492 17.6225 18.3681 20.3414 18.3681 23.6962C18.3681 25.6916 17.407 27.4603 15.9233 28.5713C16.0987 27.9391 16.2705 27.1899 16.3801 26.3896C16.4386 25.9656 16.4824 25.5271 16.4934 25.0813C16.5336 23.9411 16.4057 22.768 15.9672 21.7118C15.101 19.6215 12.2688 18.4228 9.96649 17.7686L9.82031 17.7284C10.1821 17.659 10.5585 17.6261 10.9386 17.6261C11.0957 17.6261 11.2529 17.6298 11.4064 17.6444L11.4027 17.6407Z" fill="#606060"/>
</g>
<g style="mix-blend-mode:multiply" opacity="0.25">
<path d="M7.7584 26.6715C8.45275 27.2197 9.3481 27.8738 9.84511 28.02C9.60757 27.9615 8.31754 27.6144 7.45508 27.3841C7.5574 27.1649 7.66338 26.9237 7.7584 26.6715Z" fill="#606060"/>
</g>
</svg>
