<svg width="519" height="261" viewBox="0 0 519 261" fill="none" xmlns="http://www.w3.org/2000/svg">
<g clip-path="url(#clip0_5251_82433)">
<path d="M273.468 261L0 123.987L245.071 0L519 136.682L273.468 261Z" fill="#79AD51"/>
<path d="M80.6338 83.0801L351.864 220.552" stroke="#D1FFA1" stroke-width="3" stroke-miterlimit="10"/>
<path d="M162.855 41.0732L436.071 178.403" stroke="#D1FFA1" stroke-width="3" stroke-miterlimit="10"/>
<path d="M138.245 109.73L218.325 68.8564" stroke="#D1FFA1" stroke-width="3" stroke-miterlimit="10"/>
<path d="M80.6338 83.0801L162.855 41.0732L218.325 68.8564L138.245 109.73Z" stroke="#000000" stroke-width="1" fill="red" />
<g id="pos_1" transform="translate(80.6338,83.0801)">
    <path d="M0 0L82.2212 -42.0069L137.6911 -14.2237L57.6112 26.6499Z" stroke="#000000" stroke-width="1" fill="yellow" />
</g>
<path d="M190.103 137.522L272.182 96.6484" stroke="#D1FFA1" stroke-width="3" stroke-miterlimit="10"/>
<path d="M245.071 165.314L327.151 124.44" stroke="#D1FFA1" stroke-width="3" stroke-miterlimit="10"/>
<path d="M298.562 193.578L383.193 151.429" stroke="#D1FFA1" stroke-width="3" stroke-miterlimit="10"/>
</g>
<!-- <g opacity="0.5" clip-path="url(#clip0_5251_73092)" transform="scale(0.9,0.9) translate(115,30)">
<path d="M80.5 39.48V38.38L80.46 38.4L80.36 23.81L38.25 0.5L0.5 19.71V52.27L41.91 74.84L80.46 56.53V50.67L80.5 50.66V49.56L80.46 49.58V39.49L80.5 39.48Z" fill="white" stroke="#4CC800" stroke-linecap="round" stroke-linejoin="round"/>
<path d="M41.9102 74.8398V40.3398" stroke="#4CC800" stroke-linecap="round" stroke-linejoin="round"/>
<path d="M80.17 24.06L41.85 40.38L0.5 19.71" stroke="#4CC800" stroke-linecap="round" stroke-linejoin="round"/>
</g>
<g opacity="0.5" clip-path="url(#clip0_5251_73092)" transform="scale(0.9,0.9) translate(115,-30)">
<path d="M80.5 39.48V38.38L80.46 38.4L80.36 23.81L38.25 0.5L0.5 19.71V52.27L41.91 74.84L80.46 56.53V50.67L80.5 50.66V49.56L80.46 49.58V39.49L80.5 39.48Z" fill="white" stroke="#4CC800" stroke-linecap="round" stroke-linejoin="round"/>
<path d="M41.9102 74.8398V40.3398" stroke="#4CC800" stroke-linecap="round" stroke-linejoin="round"/>
<path d="M80.17 24.06L41.85 40.38L0.5 19.71" stroke="#4CC800" stroke-linecap="round" stroke-linejoin="round"/>
</g> -->

<defs>
<clipPath id="clip0_5251_82433">
<rect width="519" height="261" fill="white"/>
</clipPath>
</defs>
</svg>
