<svg width="376" height="137" viewBox="0 0 376 137" fill="none" xmlns="http://www.w3.org/2000/svg">
<rect x="0.5" y="0.5" width="375" height="136" rx="19.5" fill="#79AD51" stroke="#CCD9E1"/>
<g clip-path="url(#clip0_3051_8186)">
<path d="M163.308 13.8942C163.308 13.8942 164.808 11.1047 161.303 9.95531C160.014 7.3831 153.72 6.59812 152.788 12.3243C149.213 15.0436 151.428 20.8399 155.654 20.2511C159.089 22.7533 162.803 19.9077 163.09 17.2584C164.408 16.6136 164.52 14.6091 163.308 13.8942Z" fill="#5B933B"/>
<g style="mix-blend-mode:multiply" opacity="0.2">
<path d="M157.153 11.3921C157.153 11.3921 154.721 11.1538 154.574 13.8732C153.074 15.9478 154.574 19.0947 156.936 18.2397C158.226 19.8166 161.232 18.1696 160.44 15.8076C161.73 14.3078 161.302 11.7706 159.221 11.5884C159.151 10.0885 157.216 9.92729 157.146 11.3991L157.153 11.3921Z" fill="#2D2B39"/>
</g>
</g>
<g clip-path="url(#clip1_3051_8186)">
<path d="M312.308 19.8942C312.308 19.8942 313.808 17.1047 310.303 15.9553C309.014 13.3831 302.72 12.5981 301.788 18.3243C298.213 21.0436 300.428 26.8399 304.654 26.2511C308.089 28.7533 311.803 25.9077 312.09 23.2584C313.408 22.6136 313.52 20.6091 312.308 19.8942Z" fill="#5B933B"/>
<g style="mix-blend-mode:multiply" opacity="0.2">
<path d="M306.153 17.3921C306.153 17.3921 303.721 17.1538 303.574 19.8732C302.074 21.9478 303.574 25.0947 305.936 24.2397C307.226 25.8166 310.232 24.1696 309.44 21.8076C310.73 20.3078 310.302 17.7706 308.221 17.5884C308.151 16.0885 306.216 15.9273 306.146 17.3991L306.153 17.3921Z" fill="#2D2B39"/>
</g>
</g>
<g clip-path="url(#clip2_3051_8186)">
<path d="M272.308 117.894C272.308 117.894 273.808 115.105 270.303 113.955C269.014 111.383 262.72 110.598 261.788 116.324C258.213 119.044 260.428 124.84 264.654 124.251C268.089 126.753 271.803 123.908 272.09 121.258C273.408 120.614 273.52 118.609 272.308 117.894Z" fill="#5B933B"/>
<g style="mix-blend-mode:multiply" opacity="0.2">
<path d="M266.153 115.392C266.153 115.392 263.721 115.154 263.574 117.873C262.074 119.948 263.574 123.095 265.936 122.24C267.226 123.817 270.232 122.17 269.44 119.808C270.73 118.308 270.302 115.771 268.221 115.588C268.151 114.088 266.216 113.927 266.146 115.399L266.153 115.392Z" fill="#2D2B39"/>
</g>
</g>
<g clip-path="url(#clip3_3051_8186)">
<path d="M118.308 117.894C118.308 117.894 119.808 115.105 116.303 113.955C115.014 111.383 108.72 110.598 107.788 116.324C104.213 119.044 106.428 124.84 110.654 124.251C114.089 126.753 117.803 123.908 118.09 121.258C119.408 120.614 119.52 118.609 118.308 117.894Z" fill="#5B933B"/>
<g style="mix-blend-mode:multiply" opacity="0.2">
<path d="M112.153 115.392C112.153 115.392 109.721 115.154 109.574 117.873C108.074 119.948 109.574 123.095 111.936 122.24C113.226 123.817 116.232 122.17 115.44 119.808C116.73 118.308 116.302 115.771 114.221 115.588C114.151 114.088 112.216 113.927 112.146 115.399L112.153 115.392Z" fill="#2D2B39"/>
</g>
</g>
<g clip-path="url(#clip4_3051_8186)">
<path d="M68.77 103.563C68.77 103.563 70.4481 100.457 66.5274 99.1773C65.0845 96.3132 58.0429 95.4392 57 101.815C53.0009 104.843 55.4788 111.297 60.2072 110.641C64.0495 113.427 68.2054 110.259 68.5269 107.309C70.0011 106.591 70.1266 104.359 68.77 103.563Z" fill="#5B933B"/>
<g style="mix-blend-mode:multiply" opacity="0.2">
<path d="M61.8846 100.777C61.8846 100.777 59.1636 100.512 58.9989 103.54C57.3209 105.85 58.9989 109.354 61.6415 108.402C63.0843 110.157 66.4483 108.323 65.5622 105.694C67.005 104.023 66.5267 101.198 64.1978 100.996C64.1194 99.3255 61.9552 99.146 61.8767 100.785L61.8846 100.777Z" fill="#2D2B39"/>
</g>
</g>
<g clip-path="url(#clip5_3051_8186)">
<path d="M185.42 116.013C185.42 116.013 186.446 114.114 184.049 113.331C183.167 111.58 178.861 111.046 178.223 114.944C175.778 116.796 177.293 120.742 180.184 120.342C182.534 122.045 185.075 120.108 185.271 118.304C186.173 117.865 186.25 116.5 185.42 116.013Z" fill="#5B933B"/>
<g style="mix-blend-mode:multiply" opacity="0.2">
<path d="M181.211 114.31C181.211 114.31 179.547 114.148 179.447 115.999C178.42 117.412 179.447 119.554 181.062 118.972C181.945 120.046 184.002 118.924 183.46 117.316C184.342 116.295 184.05 114.568 182.626 114.443C182.578 113.422 181.254 113.313 181.206 114.315L181.211 114.31Z" fill="#2D2B39"/>
</g>
</g>
<g clip-path="url(#clip6_3051_8186)">
<path d="M240.42 31.0133C240.42 31.0133 241.446 29.1141 239.049 28.3315C238.167 26.5802 233.861 26.0457 233.223 29.9444C230.778 31.796 232.293 35.7424 235.184 35.3415C237.534 37.0452 240.075 35.1077 240.271 33.3039C241.173 32.8649 241.25 31.5001 240.42 31.0133Z" fill="#5B933B"/>
<g style="mix-blend-mode:multiply" opacity="0.2">
<path d="M236.211 29.3099C236.211 29.3099 234.547 29.1476 234.447 30.9992C233.42 32.4117 234.447 34.5543 236.062 33.9721C236.945 35.0458 239.002 33.9244 238.46 32.3162C239.342 31.295 239.05 29.5676 237.626 29.4435C237.578 28.4223 236.254 28.3125 236.206 29.3146L236.211 29.3099Z" fill="#2D2B39"/>
</g>
</g>
<g clip-path="url(#clip7_3051_8186)">
<path d="M87.4201 28.0133C87.4201 28.0133 88.4462 26.1141 86.0488 25.3315C85.1665 23.5802 80.8607 23.0457 80.223 26.9444C77.7776 28.796 79.2928 32.7424 82.1841 32.3415C84.5336 34.0452 87.0749 32.1077 87.2715 30.3039C88.1729 29.8649 88.2496 28.5001 87.4201 28.0133Z" fill="#5B933B"/>
<g style="mix-blend-mode:multiply" opacity="0.2">
<path d="M83.2111 26.3099C83.2111 26.3099 81.5472 26.1476 81.4465 27.9992C80.4204 29.4117 81.4465 31.5543 83.0624 30.9721C83.9447 32.0458 86.0017 30.9244 85.4599 29.3162C86.3421 28.295 86.0496 26.5676 84.6255 26.4435C84.5776 25.4223 83.2542 25.3125 83.2063 26.3146L83.2111 26.3099Z" fill="#2D2B39"/>
</g>
</g>
<defs>
<clipPath id="clip0_3051_8186">
<rect width="13.1554" height="13.2185" fill="white" transform="translate(151 8)"/>
</clipPath>
<clipPath id="clip1_3051_8186">
<rect width="13.1554" height="13.2185" fill="white" transform="translate(300 14)"/>
</clipPath>
<clipPath id="clip2_3051_8186">
<rect width="13.1554" height="13.2185" fill="white" transform="translate(260 112)"/>
</clipPath>
<clipPath id="clip3_3051_8186">
<rect width="13.1554" height="13.2185" fill="white" transform="translate(106 112)"/>
</clipPath>
<clipPath id="clip4_3051_8186">
<rect width="14.7183" height="14.7183" fill="white" transform="translate(55 97)"/>
</clipPath>
<clipPath id="clip5_3051_8186">
<rect width="9" height="9" fill="white" transform="translate(177 112)"/>
</clipPath>
<clipPath id="clip6_3051_8186">
<rect width="9" height="9" fill="white" transform="translate(232 27)"/>
</clipPath>
<clipPath id="clip7_3051_8186">
<rect width="9" height="9" fill="white" transform="translate(79 24)"/>
</clipPath>
</defs>
</svg>
